<?xml version="1.0" encoding="UTF-8" standalone="no"?>
<!-- Created with Inkscape (http://www.inkscape.org/) -->

<svg
   xmlns:osb="http://www.openswatchbook.org/uri/2009/osb"
   xmlns:dc="http://purl.org/dc/elements/1.1/"
   xmlns:cc="http://creativecommons.org/ns#"
   xmlns:rdf="http://www.w3.org/1999/02/22-rdf-syntax-ns#"
   xmlns:svg="http://www.w3.org/2000/svg"
   xmlns="http://www.w3.org/2000/svg"
   xmlns:xlink="http://www.w3.org/1999/xlink"
   xmlns:sodipodi="http://sodipodi.sourceforge.net/DTD/sodipodi-0.dtd"
   xmlns:inkscape="http://www.inkscape.org/namespaces/inkscape"
   width="245.23738"
   height="130.00609"
   id="svg1901"
   sodipodi:version="0.32"
   inkscape:version="0.48.4 r9939"
   sodipodi:docname="hanta.svg"
   version="1.1"
   inkscape:export-filename="/home/etu/git/hanta.privu.net/hanta.png"
   inkscape:export-xdpi="90"
   inkscape:export-ydpi="90">
  <sodipodi:namedview
     id="base"
     pagecolor="#000000"
     bordercolor="#666666"
     borderopacity="1.0"
     inkscape:pageopacity="0"
     inkscape:pageshadow="2"
     inkscape:zoom="3.1980382"
     inkscape:cx="135.61144"
     inkscape:cy="36.182765"
     inkscape:document-units="px"
     inkscape:current-layer="layer2"
     inkscape:window-width="1631"
     inkscape:window-height="1026"
     inkscape:window-x="49"
     inkscape:window-y="24"
     showgrid="false"
     inkscape:window-maximized="1"
     fit-margin-top="0"
     fit-margin-left="0"
     fit-margin-right="0"
     fit-margin-bottom="0"
     borderlayer="false" />
  <defs
     id="defs1903">
    <linearGradient
       id="linearGradient4437">
      <stop
         style="stop-color:#e8e5d1;stop-opacity:1;"
         offset="0"
         id="stop4439" />
      <stop
         style="stop-color:#f8f7e7;stop-opacity:1;"
         offset="1"
         id="stop4441" />
    </linearGradient>
    <linearGradient
       id="linearGradient4274"
       osb:paint="gradient">
      <stop
         style="stop-color:#000000;stop-opacity:1;"
         offset="0"
         id="stop4276" />
      <stop
         style="stop-color:#000000;stop-opacity:0;"
         offset="1"
         id="stop4278" />
    </linearGradient>
    <linearGradient
       inkscape:collect="always"
       id="linearGradient4182">
      <stop
         style="stop-color:#5e9e9a;stop-opacity:1;"
         offset="0"
         id="stop4184" />
      <stop
         style="stop-color:#5e9e9a;stop-opacity:0;"
         offset="1"
         id="stop4186" />
    </linearGradient>
    <linearGradient
       id="linearGradient3839">
      <stop
         id="stop3841"
         offset="0"
         style="stop-color:#000000;stop-opacity:1;" />
      <stop
         id="stop3843"
         offset="1"
         style="stop-color:#000000;stop-opacity:0;" />
    </linearGradient>
    <linearGradient
       id="linearGradient3831">
      <stop
         id="stop3833"
         offset="0"
         style="stop-color:#000000;stop-opacity:1;" />
      <stop
         id="stop3835"
         offset="1"
         style="stop-color:#000000;stop-opacity:0;" />
    </linearGradient>
    <linearGradient
       gradientUnits="userSpaceOnUse"
       y2="485.34784"
       x2="395.08905"
       y1="462.61044"
       x1="491.354"
       id="linearGradient3845"
       xlink:href="#linearGradient4274"
       inkscape:collect="always" />
    <linearGradient
       inkscape:collect="always"
       xlink:href="#linearGradient4182"
       id="linearGradient4188"
       x1="288.22864"
       y1="478.31296"
       x2="430.82498"
       y2="478.31296"
       gradientUnits="userSpaceOnUse" />
    <filter
       id="filter4198"
       inkscape:label="Eroded metal"
       inkscape:menu="Materials"
       inkscape:menu-tooltip="Eroded metal texture with ridges, grooves, holes and bumps"
       color-interpolation-filters="sRGB">
      <feGaussianBlur
         id="feGaussianBlur4200"
         result="result0"
         in="SourceGraphic"
         stdDeviation="1" />
      <feTurbulence
         id="feTurbulence4202"
         type="turbulence"
         baseFrequency="0.057"
         seed="4"
         numOctaves="4"
         result="result1" />
      <feDisplacementMap
         id="feDisplacementMap4204"
         in2="result1"
         xChannelSelector="R"
         result="result91"
         scale="0"
         yChannelSelector="A" />
      <feComposite
         id="feComposite4206"
         in2="result91"
         result="result2"
         operator="out"
         in="result0" />
      <feComposite
         id="feComposite4208"
         in2="result2"
         k1="0.1"
         k3="1.2"
         in="SourceAlpha"
         operator="arithmetic"
         result="result5"
         k2="0"
         k4="0" />
      <feBlend
         id="feBlend4210"
         in2="result5"
         result="fbSourceGraphic"
         mode="multiply" />
      <feGaussianBlur
         id="feGaussianBlur4212"
         stdDeviation="3"
         in="fbSourceGraphic"
         result="result0" />
      <feSpecularLighting
         id="feSpecularLighting4214"
         in="result0"
         result="result1"
         lighting-color="#fee65d"
         surfaceScale="3"
         specularConstant="0.40000001"
         specularExponent="15">
        <fePointLight
           id="fePointLight4216"
           x="-5000"
           y="-10000"
           z="20000" />
      </feSpecularLighting>
      <feComposite
         id="feComposite4218"
         in2="fbSourceGraphic"
         in="result1"
         result="result2"
         operator="in" />
      <feComposite
         id="feComposite4220"
         in2="result2"
         k1="-1"
         in="fbSourceGraphic"
         result="result4"
         operator="arithmetic"
         k2="2.5"
         k3="3.5"
         k4="0" />
      <feBlend
         id="feBlend4222"
         in2="result4"
         mode="multiply" />
    </filter>
    <filter
       inkscape:collect="always"
       id="filter4240"
       color-interpolation-filters="sRGB">
      <feGaussianBlur
         inkscape:collect="always"
         stdDeviation="0.47036992"
         id="feGaussianBlur4242" />
    </filter>
    <filter
       inkscape:collect="always"
       id="filter4270"
       color-interpolation-filters="sRGB">
      <feGaussianBlur
         inkscape:collect="always"
         stdDeviation="0.26947974"
         id="feGaussianBlur4272" />
    </filter>
    <linearGradient
       inkscape:collect="always"
       xlink:href="#linearGradient4274"
       id="linearGradient4280"
       x1="319.67407"
       y1="509.33582"
       x2="288.82587"
       y2="530.56207"
       gradientUnits="userSpaceOnUse" />
    <linearGradient
       inkscape:collect="always"
       xlink:href="#linearGradient4437"
       id="linearGradient4443"
       x1="429.92337"
       y1="432.10706"
       x2="465.82907"
       y2="419.91208"
       gradientUnits="userSpaceOnUse" />
  </defs>
  <metadata
     id="metadata1906">
    <rdf:RDF>
      <cc:Work
         rdf:about="">
        <dc:format>image/svg+xml</dc:format>
        <dc:type
           rdf:resource="http://purl.org/dc/dcmitype/StillImage" />
        <dc:title></dc:title>
      </cc:Work>
    </rdf:RDF>
  </metadata>
  <g
     inkscape:label="Taso"
     id="layer2"
     inkscape:groupmode="layer"
     transform="translate(-258.49905,-406.25089)"
     style="display:inline">
    <path
       sodipodi:nodetypes="ccccc"
       inkscape:connector-curvature="0"
       id="path3047"
       d="m 292.43916,477.08031 28.78935,26.76904 -33.80105,22.66121 -28.59858,-27.17874 z"
       style="opacity:0.2;fill:#7b7d7f;fill-opacity:1;stroke:none;display:inline" />
    <path
       sodipodi:nodetypes="cccc"
       inkscape:connector-curvature="0"
       id="path3049"
       d="m 287.71361,526.26348 0.17987,9.40568 33.33503,-22.72844 0,-9.59645"
       style="fill:url(#linearGradient4280);fill-opacity:1;stroke:#000000;stroke-width:0.2;stroke-linecap:butt;stroke-linejoin:miter;stroke-miterlimit:4;stroke-opacity:1;stroke-dasharray:none;display:inline" />
    <path
       sodipodi:nodetypes="ccc"
       inkscape:connector-curvature="0"
       id="path3051"
       d="m 258.59905,499.30366 0.28615,9.84355 28.6658,27.00977"
       style="fill:none;stroke:#000000;stroke-width:0.2;stroke-linecap:butt;stroke-linejoin:miter;stroke-miterlimit:4;stroke-opacity:1;stroke-dasharray:none;display:inline" />
    <path
       sodipodi:nodetypes="ccccccc"
       inkscape:connector-curvature="0"
       id="path3053"
       d="m 288.93178,479.20689 -0.14533,-12.99117 92.54614,-58.83594 48.48732,27.7792 -96.84582,65.76832 -4.58106,0.54765 -39.66291,-35.0294"
       style="fill:#5eb1b7;stroke:none;display:inline;filter:url(#filter4240)" />
    <path
       sodipodi:nodetypes="ccccccccccccc"
       inkscape:connector-curvature="0"
       id="path3055"
       d="m 318.95383,514.56599 2.2854,-1.77386 0.13149,-9.09305 -28.3272,-26.50582 -4.31489,2.14433 0.14593,-12.40943 39.12144,34.52398 5.18147,-0.44959 95.82983,-65.31411 1.31768,18.66344 -99.08397,65.70987 -4.69285,0.87571 c 0,0 -4.09772,-3.48244 -7.59433,-6.37147 z"
       style="fill:url(#linearGradient4188);fill-opacity:1;stroke:none;display:inline" />
    <path
       sodipodi:nodetypes="czzzcc"
       inkscape:connector-curvature="0"
       id="path3057"
       d="m 485.84276,411.92547 c -23.23914,0.83126 -75.78349,3.06961 -90.19115,3.6908 -14.40766,0.62118 -52.93978,-0.93725 -49.64322,26.75728 3.29655,27.69454 56.71721,18.15224 89.249,15.79416 32.53179,-2.35807 67.46927,-4.93418 67.46927,-4.93418 z"
       style="fill:url(#linearGradient4443);fill-opacity:1;stroke:none;display:inline" />
    <path
       sodipodi:nodetypes="cccc"
       inkscape:connector-curvature="0"
       id="path3059"
       d="m 422.0614,459.64519 c 0,0 75.79136,-6.3279 80.55181,-6.362 1.97485,9.88352 -3.75742,17.67849 -3.75742,17.67849 -36.14212,2.148 -68.51561,5.90521 -104.64542,7.70561"
       style="fill:url(#linearGradient3845);fill-opacity:1;stroke:#000000;stroke-width:0.1;stroke-linecap:butt;stroke-linejoin:miter;stroke-miterlimit:4;stroke-opacity:1;stroke-dasharray:none;display:inline;filter:url(#filter4270)" />
    <path
       transform="translate(3.3508556,-2.8129592)"
       d="m 386.02456,443.35651 a 15.471275,12.009172 0 1 1 -30.94255,0 15.471275,12.009172 0 1 1 30.94255,0 z"
       sodipodi:ry="12.009172"
       sodipodi:rx="15.471275"
       sodipodi:cy="443.35651"
       sodipodi:cx="370.55328"
       id="path3061"
       style="opacity:0.91836733;fill:#00354b;fill-opacity:1;stroke:#000000;stroke-width:1;stroke-linejoin:round;stroke-miterlimit:4;stroke-opacity:1;stroke-dasharray:none;display:inline"
       sodipodi:type="arc" />
    <g
       id="text3989"
       style="font-size:48px;font-style:normal;font-variant:normal;font-weight:300;font-stretch:normal;text-align:start;line-height:125%;letter-spacing:0px;word-spacing:0px;writing-mode:lr-tb;text-anchor:start;fill:#c5bb00;fill-opacity:1;stroke:none;font-family:Open Sans;-inkscape-font-specification:Open Sans Light"
       transform="translate(-2.1582734,-0.53956835)">
      <path
         id="path3994"
         style="font-weight:normal;fill:#c5bb00;font-family:Pacifico;-inkscape-font-specification:Pacifico"
         d="m 429.48695,437.66971 c 0.0949,1.55462 0.23223,3.01175 0.41221,4.37011 0.17688,1.35076 0.41022,2.5229 0.70008,3.51461 0.25325,0.86664 0.59695,1.54196 1.03098,2.02485 0.44095,0.47 1.00124,0.68636 1.68019,0.64873 0.25703,-0.0142 0.53892,-0.12094 0.84555,-0.31998 0.30254,-0.21167 0.62579,-0.52817 0.96958,-0.94916 0.34323,-0.42037 0.70292,-0.95738 1.07884,-1.61046 0.38525,-0.65219 0.79465,-1.42636 1.2279,-2.32158 0.0533,0.0741 0.1677,0.24738 0.3432,0.52013 0.15391,0.23559 0.3767,0.59606 0.66857,1.08174 0.29849,0.47302 0.70917,1.1275 1.23256,1.96427 -0.46083,1.04838 -0.96496,1.97901 -1.51233,2.79096 -0.53866,0.81359 -1.09988,1.50616 -1.68345,2.07693 -0.57837,0.55844 -1.17035,0.98708 -1.77568,1.28536 -0.59203,0.31105 -1.17302,0.48321 -1.7426,0.51619 -0.65288,0.0378 -1.30481,-0.083 -1.95536,-0.36231 -0.64667,-0.26627 -1.26173,-0.6793 -1.8448,-1.23866 -0.57211,-0.55936 -1.09774,-1.25191 -1.57666,-2.07694 -0.48173,-0.83631 -0.87665,-1.79301 -1.18483,-2.86909 -0.10623,-0.37081 -0.20884,-0.83869 -0.3077,-1.40328 -0.0988,-0.56372 -0.19355,-1.20421 -0.28423,-1.92106 -0.0803,-0.71598 -0.15798,-1.49479 -0.23311,-2.33604 -0.0684,-0.85237 -0.13387,-1.74743 -0.19648,-2.68485 -1.31946,0.2443 -2.5885,0.47365 -3.80683,0.68796 -1.22035,0.21469 -2.43929,0.42316 -3.65678,0.62539 0.006,1.07439 0.006,2.13302 10e-4,3.17576 0.002,1.03254 -0.007,2.01032 -0.0262,2.93288 -0.0126,0.91159 -0.0291,1.75388 -0.0495,2.52638 -0.0135,0.7607 -0.0259,1.41125 -0.0371,1.95104 -0.13619,1.40544 -0.3728,2.41128 -0.7099,3.01414 -0.32726,0.60344 -0.6859,0.91687 -1.07555,0.93942 -0.25284,0.0146 -0.51461,-0.0235 -0.78526,-0.11435 -0.27066,-0.0909 -0.52729,-0.2291 -0.76982,-0.41468 -0.24248,-0.18553 -0.45851,-0.41238 -0.64807,-0.68046 -0.17894,-0.26854 -0.31384,-0.57256 -0.40474,-0.91198 -0.0559,-0.20872 -0.089,-0.41199 -0.0993,-0.60985 -0.092,-2.01264 -0.12774,-3.94531 -0.10776,-5.79907 0.0268,-1.85745 0.0725,-3.65469 0.13683,-5.39253 -0.5697,0.0291 -1.13265,0.006 -1.68873,-0.0678 -0.54926,-0.0874 -1.08267,-0.25262 -1.60005,-0.4955 -0.51726,-0.24279 -1.01461,-0.58891 -1.49183,-1.03808 -0.46643,-0.44927 -0.90881,-1.02684 -1.32691,-1.73211 -0.10134,-0.22395 -0.19082,-0.42296 -0.26841,-0.59707 -0.0672,-0.1745 -0.12405,-0.34944 -0.17051,-0.52483 -0.14585,-0.55063 -0.0584,-0.83339 0.26206,-0.84886 0.19637,-0.009 0.44827,0.11124 0.75583,0.36219 0.30436,0.23859 0.71783,0.63045 1.24073,1.17596 0.47915,-0.0488 0.95972,-0.0915 1.44175,-0.1278 0.48177,-0.0363 1.0011,-0.0681 1.55793,-0.0953 0,0 1.48341,-0.0727 1.48341,-0.0727 0.0525,-1.1788 0.0962,-2.30917 0.13115,-3.39156 0.0417,-1.09182 0.0645,-2.15442 0.0686,-3.18808 -0.006,-0.658 -0.0484,-1.31318 -0.12584,-1.96559 -0.0774,-0.65117 -0.19689,-1.26852 -0.35853,-1.85228 -0.13116,-0.47358 -0.28755,-0.90869 -0.46916,-1.30548 -0.18144,-0.39634 -0.39152,-0.72993 -0.6303,-1.00095 -0.23864,-0.2708 -0.50603,-0.47922 -0.80223,-0.62534 -0.29616,-0.14603 -0.63147,-0.21114 -1.00605,-0.19531 -0.30383,0.0129 -0.64189,0.0883 -1.01437,0.22609 -0.3626,0.13759 -0.74978,0.35577 -1.16172,0.65474 -0.41572,0.28727 -0.85319,0.66779 -1.31266,1.14191 -0.45334,0.4624 -0.92919,1.03746 -1.42788,1.72583 -0.17348,0.24253 -0.34962,0.4173 -0.52838,0.52419 -0.1686,0.10653 -0.33488,0.16344 -0.49881,0.17068 -0.082,0.004 -0.18555,-0.15272 -0.31066,-0.46899 -0.12823,-0.32816 -0.25529,-0.73021 -0.38101,-1.2059 -0.16746,-0.63326 -0.20405,-1.24037 -0.11012,-1.82137 0.10395,-0.58036 0.30205,-1.11481 0.59403,-1.60349 0.2883,-0.49987 0.6499,-0.95331 1.08466,-1.36047 0.441,-0.41889 0.90921,-0.77162 1.40467,-1.05842 0.50171,-0.29876 1.0156,-0.53121 1.5418,-0.69753 0.5257,-0.1661 1.02521,-0.25866 1.49871,-0.27778 0.70482,-0.0284 1.41032,0.0577 2.11686,0.2582 0.70651,0.20058 1.37094,0.54167 1.99371,1.02358 0.63334,0.48197 1.20375,1.11846 1.7115,1.91026 0.51876,0.79293 0.94164,1.76837 1.26869,2.92793 0.15364,0.5448 0.2861,1.21418 0.39746,2.00881 0.1217,0.79599 0.22546,1.67494 0.31125,2.63749 0.0825,0.95293 0.14869,1.97776 0.19839,3.07515 0.0566,1.08797 0.0998,2.20509 0.1297,3.35167 1.03051,-0.1388 2.19265,-0.28392 3.48592,-0.43534 1.29127,-0.15116 2.58568,-0.30235 3.88324,-0.45357 -0.0802,-2.08937 -0.12891,-4.23622 -0.14649,-6.43928 -0.011,-2.20169 0.0255,-4.34889 0.10898,-6.44235 0.0289,-0.69094 0.16783,-1.24634 0.41666,-1.66678 0.25838,-0.42019 0.64085,-0.64051 1.1475,-0.66142 0.20852,-0.009 0.41769,0.0189 0.62756,0.0823 0.21975,0.0631 0.42712,0.16879 0.62215,0.31709 0.19149,0.13651 0.36253,0.32203 0.51314,0.55665 0.15703,0.22249 0.28194,0.48864 0.37474,0.79856 0.0821,0.27443 0.16368,0.59744 0.24476,0.96916 0.0775,0.36019 0.1143,0.7528 0.11029,1.17796 -0.007,0.75449 -0.0126,1.5655 -0.0171,2.4334 -0.008,0.85804 -0.0123,1.74878 -0.0124,2.67243 0.006,0.91351 0.0148,1.8541 0.0256,2.82197 0.0208,0.97014 0.0501,1.9363 0.0877,2.89843 0.62281,-0.0804 1.16615,-0.15052 1.63015,-0.2106 0.46002,-0.0724 0.8074,-0.1267 1.04229,-0.16311 0.1073,-0.0177 0.20635,-0.0287 0.29718,-0.0331 0.0972,-0.0172 0.1861,-0.0277 0.26681,-0.0316 0.30248,-0.0146 0.55551,0.0106 0.75916,0.0758 0.21369,0.0647 0.3913,0.16241 0.5329,0.29314 0.15166,0.13032 0.27553,0.28704 0.37162,0.47023 0.096,0.1833 0.17951,0.39237 0.25025,0.62726 0.0782,0.25982 0.098,0.47869 0.0594,0.65658 -0.0387,0.178 -0.112,0.32635 -0.21988,0.44499 -0.1016,0.10581 -0.22078,0.18732 -0.35753,0.24451 -0.14056,0.0448 -0.27475,0.0767 -0.40253,0.0956 -0.27222,0.0514 -0.4654,0.0925 -0.57943,0.12347 -0.11783,0.0185 -0.20019,0.0353 -0.24709,0.0502 -0.0507,0.003 -0.0842,0.0107 -0.10081,0.0239 -0.0102,5.3e-4 -0.0437,0.009 -0.10081,0.0239 -0.0608,0.003 -0.16531,0.0147 -0.31363,0.0346 -0.14836,0.02 -0.37411,0.0566 -0.67736,0.10955 -0.35047,0.068 -0.69783,0.12965 -1.0421,0.18478 -0.33431,0.0547 -0.66874,0.10937 -1.00331,0.16403"
         inkscape:connector-curvature="0" />
      <path
         id="path3996"
         style="font-weight:normal;fill:#c5bb00;font-family:Pacifico;-inkscape-font-specification:Pacifico"
         d="m 454.98058,445.98583 c -0.10062,0.41666 -0.25939,0.90786 -0.47654,1.47396 -0.20748,0.56656 -0.47396,1.11154 -0.79959,1.63488 -0.32623,0.52426 -0.71292,0.97486 -1.16014,1.3515 -0.44787,0.37719 -0.95123,0.58198 -1.50979,0.61399 -0.67072,0.0384 -1.31469,-0.19865 -1.93116,-0.71091 -0.61992,-0.52458 -1.25418,-1.29457 -1.9021,-2.3086 -0.13228,0.37016 -0.31863,0.75025 -0.55916,1.14036 -0.24086,0.3906 -0.52762,0.75174 -0.86035,1.08333 -0.32691,0.31859 -0.69048,0.58737 -1.0907,0.80622 -0.40063,0.21905 -0.83124,0.34184 -1.29172,0.36821 -0.49142,0.0282 -1.01015,-0.0665 -1.55593,-0.28406 -0.53937,-0.23093 -1.05857,-0.56753 -1.55739,-1.00958 -0.50228,-0.45449 -0.96146,-1.00869 -1.37739,-1.66214 -0.41917,-0.66524 -0.75532,-1.4182 -1.00853,-2.25828 -0.28707,-0.95244 -0.47409,-1.93357 -0.56139,-2.94306 -0.0871,-1.00665 -0.0851,-1.98963 0.005,-2.94904 0.0865,-0.96918 0.25552,-1.88292 0.50664,-2.74157 0.26052,-0.85684 0.59777,-1.60858 1.01158,-2.25586 0.41291,-0.64582 0.89478,-1.16263 1.44566,-1.55102 0.5562,-0.40049 1.17867,-0.6171 1.86774,-0.6503 0.22958,-0.011 0.42644,0.0354 0.59067,0.13936 0.16423,0.104 0.30931,0.22758 0.43523,0.37078 0.13209,0.13052 0.25923,0.26131 0.38141,0.39235 0.12221,0.13112 0.25287,0.22446 0.39195,0.27997 0.13909,0.0556 0.27237,0.0927 0.39989,0.11137 0.13359,0.006 0.26528,0.006 0.39499,-6.2e-4 0.10974,-0.005 0.21948,-0.0107 0.32921,-0.0161 0.11581,-0.0181 0.22856,-0.0298 0.33826,-0.0352 0.14954,-0.007 0.29494,0.004 0.43616,0.0348 0.14122,0.0305 0.28109,0.10464 0.41966,0.22248 0.13858,0.1179 0.26787,0.28617 0.38789,0.50487 0.13001,0.21836 0.2556,0.51828 0.37675,0.89997 0.1878,0.59179 0.34753,1.25496 0.47909,1.98994 0.12789,0.72408 0.2539,1.47494 0.37803,2.25277 0.12044,0.76703 0.25316,1.54138 0.39822,2.32309 0.14138,0.77081 0.32153,1.50275 0.54054,2.19555 0.18744,0.59302 0.37562,1.05829 0.56442,1.39534 0.19504,0.32411 0.43412,0.47845 0.71709,0.46287 0.21214,-0.0117 0.41426,-0.0872 0.60629,-0.22658 0.18788,-0.15191 0.36358,-0.34165 0.52709,-0.56917 0.17343,-0.22787 0.33365,-0.48052 0.48066,-0.7579 0.15286,-0.29025 0.2885,-0.58571 0.40694,-0.88635 0.27451,-0.70456 0.52523,-1.49544 0.75216,-2.37205 0,0 2.0722,4.14045 2.0722,4.14045 m -13.41743,-0.792 c 0.097,0.31663 0.20748,0.62635 0.33134,0.92912 0.13023,0.28976 0.27819,0.55291 0.4439,0.78938 0.16189,0.22389 0.34268,0.40801 0.54236,0.55231 0.1958,0.13162 0.41081,0.19095 0.64498,0.17798 0.37656,-0.0209 0.65448,-0.24334 0.83366,-0.66702 0.17892,-0.42311 0.29147,-0.92581 0.33777,-1.5078 0.0462,-0.58099 0.0409,-1.17748 -0.0157,-1.78943 -0.0465,-0.61143 -0.11205,-1.11874 -0.19674,-1.52239 0,0 -0.79341,-5.53683 -0.79341,-5.53683 -0.41088,0.0205 -0.77143,0.17037 -1.08179,0.44974 -0.31453,0.26732 -0.58045,0.62689 -0.79774,1.07901 -0.20756,0.4523 -0.37101,0.96622 -0.49026,1.54203 -0.11948,0.57683 -0.18912,1.18386 -0.2088,1.82119 -0.0236,0.62595 3.5e-4,1.25691 0.0719,1.89285 0.0818,0.63653 0.20797,1.23323 0.3786,1.78986 m 5.87931,-18.25049 c 0.0154,0.048 0.0471,0.16243 0.0954,0.34314 0.0443,0.16882 0.0805,0.37469 0.10867,0.61769 0.0342,0.23071 0.0426,0.47495 0.0254,0.73278 -0.0173,0.25807 -0.0799,0.50001 -0.18787,0.72582 -0.10809,0.22602 -0.27731,0.41817 -0.50774,0.57639 -0.22069,0.15792 -0.5291,0.24617 -0.92523,0.26468 -0.61432,0.0288 -1.18529,-0.15382 -1.71238,-0.54756 -0.52065,-0.406 -0.93164,-1.08663 -1.23269,-2.0403 -0.12553,-0.39762 -0.20264,-0.78483 -0.23142,-1.16163 -0.0325,-0.38834 -5.2e-4,-0.73051 0.096,-1.0266 0.10623,-0.2962 0.27377,-0.54025 0.50258,-0.73227 0.23847,-0.19226 0.5643,-0.29741 0.9775,-0.31556 0.69811,-0.0306 1.30144,0.17292 1.81066,0.61082 0.50963,0.43832 0.90331,1.08879 1.18121,1.95259 m -6.9206,0.31287 c 0.0151,0.0482 0.0458,0.16306 0.0926,0.34447 0.0429,0.16947 0.0773,0.37614 0.10311,0.62008 0.0221,0.23206 0.0232,0.47749 0.003,0.73633 -0.02,0.25909 -0.0855,0.50199 -0.19646,0.72871 -0.11107,0.22691 -0.28334,0.41984 -0.51688,0.57872 -0.22372,0.15857 -0.53004,0.24698 -0.91894,0.26515 -0.63853,0.0299 -1.21635,-0.15309 -1.73286,-0.54877 -0.5099,-0.40799 -0.91164,-1.09147 -1.20495,-2.04883 -0.1223,-0.39916 -0.19598,-0.78787 -0.22111,-1.16614 -0.0288,-0.38986 0.007,-0.73336 0.10699,-1.03062 0.10001,-0.29692 0.27112,-0.54195 0.51326,-0.73518 0.24196,-0.19304 0.57096,-0.29864 0.987,-0.31691 0.69302,-0.0304 1.29321,0.17407 1.80126,0.6136 0.51836,0.43952 0.91294,1.09225 1.18385,1.95938"
         inkscape:connector-curvature="0" />
      <path
         id="path3998"
         style="font-weight:normal;fill:#c5bb00;font-family:Pacifico;-inkscape-font-specification:Pacifico"
         d="m 453.41946,446.76609 c -0.26788,-0.83406 -0.53542,-1.79445 -0.80248,-2.8802 -0.27031,-1.09515 -0.52382,-2.20067 -0.76059,-3.31643 -0.24006,-1.12482 -0.45049,-2.2037 -0.63144,-3.23702 -0.18045,-1.03038 -0.31781,-1.91032 -0.41236,-2.64089 -0.0727,-0.56858 -0.0166,-1.04947 0.16805,-1.44294 0.19434,-0.39341 0.55848,-0.60279 1.09239,-0.62851 0.53364,-0.0257 0.96965,0.15737 1.30847,0.54938 0.33912,0.39238 0.61868,0.92451 0.83878,1.59702 0.0601,0.18364 0.12738,0.43547 0.202,0.75563 0.0706,0.30819 0.14345,0.65398 0.2185,1.03746 0.081,0.3711 0.1632,0.76128 0.24655,1.17063 0.0794,0.39748 0.15083,0.77065 0.21423,1.11944 0.0694,0.33625 0.13164,0.63536 0.18679,0.89723 0.0511,0.24968 0.0909,0.41802 0.11929,0.50493 0,0 0.29885,-0.0156 0.29885,-0.0156 0.0151,-0.13965 0.0387,-0.36168 0.0707,-0.66596 0.028,-0.31635 0.0616,-0.67673 0.10086,-1.08101 0.0392,-0.40377 0.0823,-0.82607 0.12909,-1.26682 0.0526,-0.45293 0.0984,-0.87997 0.1374,-1.2812 0.0349,-0.41297 0.071,-0.77576 0.10849,-1.08852 0.0374,-0.31244 0.0665,-0.54353 0.0872,-0.69345 0.0979,-0.67396 0.30846,-1.14191 0.6315,-1.40469 0.32268,-0.26248 0.72967,-0.40546 1.22102,-0.42913 0.4911,-0.0236 0.96418,0.21251 1.4198,0.7088 0.4659,0.49636 0.85031,1.19542 1.15341,2.09837 0.0451,0.13442 0.0964,0.36181 0.15393,0.68232 0.0674,0.32034 0.14065,0.70298 0.21977,1.14813 0.0792,0.44574 0.16308,0.93557 0.25163,1.4697 0.0986,0.53442 0.20637,1.08171 0.32343,1.64194 0.11723,0.56109 0.24248,1.11629 0.37577,1.66557 0.14341,0.54958 0.29227,1.05525 0.4467,1.51682 0.25907,0.77471 0.54725,1.40905 0.86441,1.90231 0.32747,0.49328 0.65578,0.73107 0.98456,0.71296 0.14939,-0.008 0.29969,-0.0741 0.45087,-0.19748 0.16103,-0.12389 0.32138,-0.27963 0.48102,-0.46716 0.16523,-0.20046 0.32189,-0.42583 0.46999,-0.67604 0.15786,-0.25053 0.30854,-0.50683 0.45202,-0.76889 0.32625,-0.61435 0.65118,-1.30337 0.97468,-2.0666 0,0 1.68269,4.17667 1.68269,4.17667 0,0 -0.50056,0.75673 -0.50056,0.75673 -0.27489,0.41249 -0.56011,0.82612 -0.85567,1.2409 -0.28605,0.41482 -0.60526,0.79343 -0.95767,1.1357 -0.35715,0.33004 -0.75177,0.6109 -1.18387,0.84244 -0.43681,0.21909 -0.93094,0.34449 -1.48228,0.37605 -0.55168,0.0316 -1.18497,-0.44385 -1.8985,-1.42473 -0.70615,-0.99191 -1.37769,-2.452 -2.01345,-4.37475 -0.24846,-0.75142 -0.47516,-1.5597 -0.68012,-2.42444 -0.2086,-0.87517 -0.41736,-1.81132 -0.62625,-2.808 0,0 -0.23806,0.0123 -0.23806,0.0123 0,0 -0.71741,9.99173 -0.71741,9.99173 -0.0317,0.53296 -0.14248,0.90249 -0.3325,1.10808 -0.19016,0.20576 -0.45189,0.31823 -0.78516,0.33731 -0.41423,0.0237 -0.78278,-0.0657 -1.10546,-0.26833 -0.3267,-0.21528 -0.62026,-0.50378 -0.88061,-0.86533 -0.25414,-0.37456 -0.48198,-0.79557 -0.6835,-1.26288 -0.19527,-0.48 -0.37418,-0.97322 -0.53681,-1.47958"
         inkscape:connector-curvature="0" />
      <path
         id="path4000"
         style="font-weight:normal;fill:#c5bb00;font-family:Pacifico;-inkscape-font-specification:Pacifico"
         d="m 479.56979,445.036 c -0.69471,0.75027 -1.31891,1.40928 -1.87203,1.97636 -0.5543,0.56828 -1.06156,1.04528 -1.52142,1.43052 -0.45066,0.38525 -0.87329,0.67937 -1.26767,0.88206 -0.38483,0.20231 -0.76097,0.31405 -1.12824,0.33508 -0.75486,0.0432 -1.52094,-0.20954 -2.29727,-0.75793 -0.77563,-0.54788 -1.54231,-1.35246 -2.29922,-2.41218 -0.75939,-1.06972 -1.49938,-2.36676 -2.21934,-3.88877 -0.70738,-1.51681 -1.38345,-3.22403 -2.02784,-5.11891 -0.2502,-0.73573 -0.49198,-1.52019 -0.72539,-2.35307 -0.23288,-0.831 -0.44357,-1.65506 -0.63218,-2.4722 -0.30993,-0.0343 -0.55425,-0.0655 -0.73295,-0.0939 -0.17303,-0.0409 -0.35868,-0.075 -0.55699,-0.10241 -0.19263,-0.04 -0.43912,-0.0773 -0.73951,-0.11211 -0.29064,-0.0353 -0.7128,-0.0765 -1.26658,-0.12371 -0.24755,-0.0251 -0.45135,-0.083 -0.6114,-0.17382 -0.16407,-0.10292 -0.29786,-0.2196 -0.40137,-0.35002 -0.10748,-0.14245 -0.19049,-0.28604 -0.24895,-0.43078 -0.0625,-0.15673 -0.11191,-0.28947 -0.14836,-0.39826 -0.0809,-0.24157 -0.0437,-0.42729 0.11164,-0.55722 0.14144,-0.14142 0.35363,-0.24938 0.63655,-0.32391 0.27301,-0.074 0.58537,-0.11926 0.93706,-0.13579 0.35727,-0.029 0.69895,-0.045 1.02507,-0.0481 0.33578,-0.004 0.63248,-0.005 0.89009,-0.005 0.2632,-0.0123 0.4394,-0.0328 0.52863,-0.0615 -0.28977,-1.63188 -0.49198,-3.20585 -0.60725,-4.72248 -0.10915,-1.52223 -0.11581,-2.86897 -0.0206,-4.04211 0.10045,-1.18102 0.32427,-2.1264 0.67111,-2.83804 0.34197,-0.72147 0.83278,-1.09456 1.47274,-1.12058 0.41051,-0.0167 0.83135,0.10734 1.26279,0.37203 0.44117,0.26447 0.86265,0.6241 1.26464,1.07914 0.40238,0.45555 0.77659,0.99554 1.12272,1.62033 0.35211,0.61373 0.64808,1.26052 0.88784,1.94059 0.2029,0.57556 0.35141,1.19023 0.44543,1.84427 0.09,0.64349 0.13839,1.30804 0.14496,1.99382 0.002,0.67532 -0.0344,1.36587 -0.11062,2.07176 -0.0667,0.707 -0.15496,1.41041 -0.2649,2.11023 0.0914,0.008 0.24095,0.013 0.4486,0.0154 0.20341,-0.01 0.43798,-0.0145 0.70354,-0.015 0.27522,-8.4e-4 0.57186,0.003 0.88987,0.0128 0.31368,-0.003 0.61765,-0.005 0.91186,-0.007 0.29411,-0.002 0.56886,-0.003 0.82422,-0.002 0.25528,7e-5 0.4671,0.002 0.63545,0.006 0.19723,0.003 0.37973,0.11601 0.54751,0.33957 0.16786,0.22371 0.31371,0.50961 0.43756,0.85783 0.14962,0.42075 0.1749,0.76836 0.0756,1.04267 -0.0994,0.2746 -0.26524,0.41765 -0.49762,0.42896 0,0 -5.59376,0.2726 -5.59376,0.2726 -0.11455,0.49832 -0.23625,0.99157 -0.36511,1.47973 -0.12351,0.47628 -0.24235,0.90962 -0.35652,1.29986 0.22187,0.7592 0.44486,1.50742 0.66897,2.24459 0.10021,0.31974 0.20468,0.65205 0.31354,0.99694 0.10472,0.3329 0.20947,0.66609 0.31436,0.99956 0.105,0.33378 0.20576,0.65549 0.30241,0.96508 0.10656,0.30935 0.20467,0.59415 0.29432,0.85437 0.23078,0.66996 0.47488,1.23272 0.73223,1.68775 0.25762,0.45555 0.532,0.82806 0.82306,1.11731 0.2869,0.27693 0.58757,0.47685 0.9019,0.59966 0.31989,0.10978 0.64776,0.15542 0.98348,0.13693 0.2073,-0.0114 0.44217,-0.088 0.7045,-0.22976 0.27201,-0.14216 0.55326,-0.32926 0.84365,-0.56118 0.29559,-0.24469 0.59257,-0.52729 0.89088,-0.84768 0.30777,-0.32053 0.59663,-0.66497 0.86658,-1.03324 0.27502,-0.38067 0.52572,-0.77217 0.75217,-1.17445 0.22174,-0.41405 0.40682,-0.83188 0.55531,-1.2535 0,0 1.69019,4.75258 1.69019,4.75258 m -12.7599,-22.74865 c -0.0452,-0.12928 -0.10402,-0.26987 -0.17662,-0.42176 -0.067,-0.16393 -0.1491,-0.31527 -0.24627,-0.45402 -0.0971,-0.13866 -0.2148,-0.25261 -0.35304,-0.3419 -0.12864,-0.0896 -0.28409,-0.13059 -0.46638,-0.12284 -0.2495,0.0106 -0.41009,0.2912 -0.4818,0.84232 -0.0622,0.5517 -0.0666,1.25734 -0.013,2.11785 0.0593,0.85043 0.15928,1.79157 0.30003,2.82411 0.15085,1.03516 0.30638,2.0427 0.46657,3.02236 0.15405,0.0172 0.30808,0.0343 0.46209,0.0514 0.14984,0.005 0.30663,0.0161 0.47031,0.0328 0.0794,-0.6255 0.15179,-1.29814 0.21711,-2.01763 0.0707,-0.73025 0.11367,-1.43954 0.12896,-2.12803 0.0111,-0.69888 -0.005,-1.34713 -0.0471,-1.94505 -0.0424,-0.59684 -0.12942,-1.08323 -0.26095,-1.45966"
         inkscape:connector-curvature="0" />
      <path
         id="path4002"
         style="font-weight:normal;fill:#c5bb00;font-family:Pacifico;-inkscape-font-specification:Pacifico"
         d="m 494.23319,443.83149 c -0.0742,0.40715 -0.20033,0.88709 -0.37864,1.44015 -0.16897,0.55351 -0.396,1.08586 -0.68123,1.59699 -0.28576,0.512 -0.63382,0.95196 -1.04429,1.31957 -0.41107,0.36815 -0.88507,0.56778 -1.42177,0.59853 -0.64446,0.0369 -1.27827,-0.19531 -1.9007,-0.69641 -0.62645,-0.51314 -1.28022,-1.26612 -1.96062,-2.25762 -0.10716,0.3616 -0.26588,0.73286 -0.47627,1.11383 -0.21068,0.38146 -0.46723,0.73407 -0.7697,1.05775 -0.29758,0.31099 -0.63323,0.57326 -1.00695,0.78672 -0.37409,0.21364 -0.78238,0.33321 -1.22478,0.35855 -0.47211,0.027 -0.97732,-0.066 -1.51537,-0.27898 -0.53261,-0.22612 -1.05163,-0.55548 -1.55681,-0.98783 -0.50923,-0.44453 -0.98243,-0.98645 -1.41944,-1.62532 -0.44079,-0.65042 -0.80642,-1.3865 -1.09693,-2.20767 -0.32938,-0.93104 -0.56391,-1.89009 -0.70391,-2.87681 -0.1396,-0.984 -0.1921,-1.94485 -0.15786,-2.88262 0.0298,-0.94739 0.14218,-1.84056 0.3368,-2.67984 0.20379,-0.83756 0.48738,-1.57232 0.85059,-2.20492 0.36243,-0.63119 0.79851,-1.1362 1.30825,-1.51558 0.51422,-0.39122 1.10251,-0.60257 1.76516,-0.6345 0.22079,-0.0106 0.41319,0.0349 0.5773,0.13676 0.16412,0.10184 0.31085,0.22282 0.44018,0.36296 0.13458,0.12775 0.2644,0.25576 0.38946,0.38401 0.12509,0.12832 0.25623,0.2197 0.39342,0.27411 0.13719,0.0545 0.26777,0.0908 0.39177,0.10923 0.12916,0.006 0.25614,0.006 0.38087,-3e-4 0.10553,-0.005 0.21107,-0.0103 0.31659,-0.0155 0.11068,-0.0176 0.21876,-0.029 0.32425,-0.0342 0.14382,-0.007 0.28467,0.004 0.42254,0.0343 0.13786,0.0299 0.27684,0.10256 0.41696,0.21792 0.14014,0.11541 0.27409,0.28007 0.40188,0.49404 0.13741,0.21364 0.27504,0.50703 0.41289,0.88037 0.2137,0.57884 0.40425,1.22744 0.57158,1.9462 0.16319,0.70807 0.32602,1.44231 0.48854,2.20287 0.15834,0.74997 0.32893,1.50708 0.51181,2.27136 0.17872,0.75359 0.39268,1.4692 0.64194,2.14655 0.21333,0.57978 0.42035,1.03469 0.62091,1.36427 0.20585,0.31693 0.44484,0.46799 0.71679,0.45301 0.20389,-0.0112 0.3946,-0.0849 0.57208,-0.2209 0.17279,-0.1483 0.33177,-0.33359 0.47691,-0.55581 0.15471,-0.22256 0.29531,-0.46936 0.42181,-0.74034 0.13144,-0.28357 0.246,-0.57223 0.34368,-0.866 0.22601,-0.68845 0.42434,-1.46135 0.59503,-2.31811 0,0 2.22527,4.04909 2.22527,4.04909 m -12.97938,-0.78595 c 0.11104,0.30953 0.23458,0.61232 0.37069,0.90832 0.14153,0.28329 0.29868,0.54059 0.47147,0.77183 0.16841,0.21893 0.35284,0.39903 0.55328,0.54022 0.19601,0.12879 0.40654,0.18697 0.63156,0.1745 0.36185,-0.02 0.61749,-0.23721 0.76687,-0.65108 0.14917,-0.41333 0.22996,-0.90451 0.24252,-1.47326 0.0125,-0.5678 -0.0254,-1.15081 -0.1138,-1.74898 -0.0785,-0.59769 -0.16969,-1.09364 -0.27358,-1.48828 0,0 -1.07034,-5.41384 -1.07034,-5.41384 -0.39507,0.0197 -0.73446,0.16596 -1.0183,0.43888 -0.28853,0.26112 -0.52509,0.61247 -0.70964,1.05434 -0.17516,0.44204 -0.30437,0.94436 -0.38756,1.50719 -0.0833,0.56382 -0.11696,1.15717 -0.10074,1.78017 0.0118,0.61186 0.0697,1.22863 0.17379,1.85029 0.11399,0.62222 0.26856,1.20552 0.46378,1.7497 m 4.66299,-17.84152 c 0.0175,0.047 0.0544,0.15896 0.11095,0.3358 0.0521,0.16519 0.0983,0.36663 0.13885,0.60438 0.0457,0.22573 0.0673,0.46469 0.0648,0.7169 -0.002,0.25245 -0.0495,0.48909 -0.14123,0.70991 -0.0918,0.22101 -0.24443,0.40885 -0.45796,0.56345 -0.20416,0.1543 -0.49675,0.24039 -0.87779,0.2582 -0.5909,0.0277 -1.15166,-0.15136 -1.68173,-0.53692 -0.52455,-0.39754 -0.9585,-1.06367 -1.3015,-1.99684 -0.14303,-0.3891 -0.23879,-0.76797 -0.28735,-1.13663 -0.0528,-0.37998 -0.0408,-0.71473 0.0359,-1.00436 0.0861,-0.28973 0.23424,-0.5284 0.44434,-0.71612 0.21941,-0.18795 0.5279,-0.2906 0.92548,-0.30807 0.67172,-0.0294 1.26492,0.17013 1.78027,0.59898 0.51576,0.42925 0.93136,1.06597 1.24701,1.91132 m -6.65783,0.30098 c 0.0172,0.0472 0.0532,0.15956 0.10831,0.33707 0.0507,0.16582 0.0953,0.36802 0.13372,0.60668 0.0342,0.22703 0.0487,0.46712 0.0438,0.7203 -0.005,0.25343 -0.0547,0.49098 -0.1492,0.71266 -0.0946,0.22188 -0.25005,0.41046 -0.46648,0.56569 -0.20699,0.15493 -0.4975,0.24117 -0.87154,0.25865 -0.61411,0.0288 -1.18145,-0.15067 -1.70145,-0.53809 -0.5143,-0.39945 -0.93957,-1.06831 -1.27545,-2.00502 -0.14005,-0.39057 -0.23264,-0.77088 -0.27783,-1.14095 -0.0494,-0.38142 -0.034,-0.71745 0.0461,-1.0082 0.08,-0.29042 0.23145,-0.53002 0.45428,-0.71891 0.22268,-0.18869 0.53414,-0.29178 0.93439,-0.30936 0.66673,-0.0292 1.25693,0.17124 1.77126,0.60166 0.52426,0.4304 0.94092,1.06928 1.25015,1.91782"
         inkscape:connector-curvature="0" />
    </g>
  </g>
</svg>
